<svg width="87" height="87" viewBox="0 0 87 87" fill="none" xmlns="http://www.w3.org/2000/svg">
<path d="M39.875 61.625H47.125V47.125H61.625V39.875H47.125V25.375H39.875V39.875H25.375V47.125H39.875V61.625ZM18.125 76.125C16.1313 76.125 14.4245 75.4151 13.0047 73.9953C11.5849 72.5755 10.875 70.8688 10.875 68.875V18.125C10.875 16.1313 11.5849 14.4245 13.0047 13.0047C14.4245 11.5849 16.1313 10.875 18.125 10.875H68.875C70.8688 10.875 72.5755 11.5849 73.9953 13.0047C75.4151 14.4245 76.125 16.1313 76.125 18.125V68.875C76.125 70.8688 75.4151 72.5755 73.9953 73.9953C72.5755 75.4151 70.8688 76.125 68.875 76.125H18.125ZM18.125 68.875H68.875V18.125H18.125V68.875Z" fill="#B78D4C"/>
</svg>
